# xmcd
#
# Track frame offsets:
#	150
#	12872
#	25567
#	42099
#	56200
#	69196
#	87128
#	98731
#	111566
#	125822
#	136440
#
# Disc length: 1970 seconds
#
# Revision: 0
# Processed by: cddbd v1.5.2PL0 Copyright (c) Steve Scherf et al.
# Submitted via: EasyCDDAExtractor 11.0.2.1
#
DISCID=8f07b00b
DTITLE=OJ Hanssen - No goodbyes
DYEAR=2007
DGENRE=Country
TTITLE0=I don't need a thing at all
TTITLE1=Way down deep
TTITLE2=No goodbyes
TTITLE3=Slide off of your satin sheets
TTITLE4=Release me
TTITLE5=Old porch swing
TTITLE6=Some broken hearts never mend
TTITLE7=Talk back trembling lips
TTITLE8=What I didn't do
TTITLE9=I can't stop loving you
TTITLE10=She's just an old love turned memory
EXTD=
EXTT0=
EXTT1=
EXTT2=
EXTT3=
EXTT4=
EXTT5=
EXTT6=
EXTT7=
EXTT8=
EXTT9=
EXTT10=
PLAYORDER=
